<svg xmlns="http://www.w3.org/2000/svg" xmlns:xlink="http://www.w3.org/1999/xlink" width="250" zoomAndPan="magnify" viewBox="0 0 187.5 52.499999" height="70" preserveAspectRatio="xMidYMid meet" version="1.0"><defs><g/></defs><g fill="#1f1f49" fill-opacity="1"><g transform="translate(2.799849, 31.711672)"><g><path d="M 0.625 -6.28125 C 0.625 -7.507812 0.898438 -8.613281 1.453125 -9.59375 C 2.015625 -10.570312 2.773438 -11.332031 3.734375 -11.875 C 4.703125 -12.414062 5.785156 -12.6875 6.984375 -12.6875 C 8.378906 -12.6875 9.601562 -12.328125 10.65625 -11.609375 C 11.71875 -10.890625 12.457031 -9.898438 12.875 -8.640625 L 9.984375 -8.640625 C 9.691406 -9.234375 9.285156 -9.679688 8.765625 -9.984375 C 8.242188 -10.285156 7.644531 -10.4375 6.96875 -10.4375 C 6.238281 -10.4375 5.585938 -10.265625 5.015625 -9.921875 C 4.453125 -9.578125 4.007812 -9.09375 3.6875 -8.46875 C 3.375 -7.851562 3.21875 -7.125 3.21875 -6.28125 C 3.21875 -5.457031 3.375 -4.726562 3.6875 -4.09375 C 4.007812 -3.46875 4.453125 -2.984375 5.015625 -2.640625 C 5.585938 -2.304688 6.238281 -2.140625 6.96875 -2.140625 C 7.644531 -2.140625 8.242188 -2.289062 8.765625 -2.59375 C 9.285156 -2.894531 9.691406 -3.347656 9.984375 -3.953125 L 12.875 -3.953125 C 12.457031 -2.671875 11.722656 -1.671875 10.671875 -0.953125 C 9.628906 -0.242188 8.398438 0.109375 6.984375 0.109375 C 5.785156 0.109375 4.703125 -0.160156 3.734375 -0.703125 C 2.773438 -1.253906 2.015625 -2.015625 1.453125 -2.984375 C 0.898438 -3.953125 0.625 -5.050781 0.625 -6.28125 Z M 0.625 -6.28125 "/></g></g></g><g fill="#1f1f49" fill-opacity="1"><g transform="translate(20.910481, 31.711672)"><g><path d="M 7.0625 0.125 C 5.882812 0.125 4.804688 -0.148438 3.828125 -0.703125 C 2.847656 -1.253906 2.066406 -2.015625 1.484375 -2.984375 C 0.910156 -3.960938 0.625 -5.066406 0.625 -6.296875 C 0.625 -7.515625 0.910156 -8.613281 1.484375 -9.59375 C 2.066406 -10.570312 2.847656 -11.332031 3.828125 -11.875 C 4.804688 -12.425781 5.882812 -12.703125 7.0625 -12.703125 C 8.238281 -12.703125 9.316406 -12.425781 10.296875 -11.875 C 11.273438 -11.332031 12.046875 -10.570312 12.609375 -9.59375 C 13.179688 -8.613281 13.46875 -7.515625 13.46875 -6.296875 C 13.46875 -5.066406 13.179688 -3.960938 12.609375 -2.984375 C 12.046875 -2.015625 11.269531 -1.253906 10.28125 -0.703125 C 9.300781 -0.148438 8.226562 0.125 7.0625 0.125 Z M 7.0625 -2.125 C 7.8125 -2.125 8.472656 -2.289062 9.046875 -2.625 C 9.617188 -2.96875 10.066406 -3.457031 10.390625 -4.09375 C 10.710938 -4.726562 10.875 -5.460938 10.875 -6.296875 C 10.875 -7.140625 10.710938 -7.875 10.390625 -8.5 C 10.066406 -9.125 9.617188 -9.601562 9.046875 -9.9375 C 8.472656 -10.28125 7.8125 -10.453125 7.0625 -10.453125 C 6.300781 -10.453125 5.628906 -10.28125 5.046875 -9.9375 C 4.472656 -9.601562 4.023438 -9.125 3.703125 -8.5 C 3.378906 -7.875 3.21875 -7.140625 3.21875 -6.296875 C 3.21875 -5.460938 3.378906 -4.726562 3.703125 -4.09375 C 4.023438 -3.457031 4.472656 -2.96875 5.046875 -2.625 C 5.628906 -2.289062 6.300781 -2.125 7.0625 -2.125 Z M 7.0625 -2.125 "/></g></g></g><g fill="#1f1f49" fill-opacity="1"><g transform="translate(39.326232, 31.711672)"><g><path d="M 14.90625 -12.53125 L 14.90625 0 L 12.390625 0 L 12.390625 -8.15625 L 9.03125 0 L 7.125 0 L 3.75 -8.15625 L 3.75 0 L 1.234375 0 L 1.234375 -12.53125 L 4.09375 -12.53125 L 8.078125 -3.21875 L 12.0625 -12.53125 Z M 14.90625 -12.53125 "/></g></g></g><g fill="#1f1f49" fill-opacity="1"><g transform="translate(59.788122, 31.711672)"><g><path d="M 14.90625 -12.53125 L 14.90625 0 L 12.390625 0 L 12.390625 -8.15625 L 9.03125 0 L 7.125 0 L 3.75 -8.15625 L 3.75 0 L 1.234375 0 L 1.234375 -12.53125 L 4.09375 -12.53125 L 8.078125 -3.21875 L 12.0625 -12.53125 Z M 14.90625 -12.53125 "/></g></g></g><g fill="#6366f1" fill-opacity="1"><g transform="translate(80.250268, 31.711672)"><g><path d="M 11.203125 -12.53125 L 6.96875 -4.359375 L 6.96875 0 L 4.453125 0 L 4.453125 -4.359375 L 0.203125 -12.53125 L 3.03125 -12.53125 L 5.734375 -6.796875 L 8.40625 -12.53125 Z M 11.203125 -12.53125 "/></g></g></g><g fill="#6366f1" fill-opacity="1"><g transform="translate(95.991677, 31.711672)"><g><path d="M 7.0625 0.125 C 5.882812 0.125 4.804688 -0.148438 3.828125 -0.703125 C 2.847656 -1.253906 2.066406 -2.015625 1.484375 -2.984375 C 0.910156 -3.960938 0.625 -5.066406 0.625 -6.296875 C 0.625 -7.515625 0.910156 -8.613281 1.484375 -9.59375 C 2.066406 -10.570312 2.847656 -11.332031 3.828125 -11.875 C 4.804688 -12.425781 5.882812 -12.703125 7.0625 -12.703125 C 8.238281 -12.703125 9.316406 -12.425781 10.296875 -11.875 C 11.273438 -11.332031 12.046875 -10.570312 12.609375 -9.59375 C 13.179688 -8.613281 13.46875 -7.515625 13.46875 -6.296875 C 13.46875 -5.066406 13.179688 -3.960938 12.609375 -2.984375 C 12.046875 -2.015625 11.269531 -1.253906 10.28125 -0.703125 C 9.300781 -0.148438 8.226562 0.125 7.0625 0.125 Z M 7.0625 -2.125 C 7.8125 -2.125 8.472656 -2.289062 9.046875 -2.625 C 9.617188 -2.96875 10.066406 -3.457031 10.390625 -4.09375 C 10.710938 -4.726562 10.875 -5.460938 10.875 -6.296875 C 10.875 -7.140625 10.710938 -7.875 10.390625 -8.5 C 10.066406 -9.125 9.617188 -9.601562 9.046875 -9.9375 C 8.472656 -10.28125 7.8125 -10.453125 7.0625 -10.453125 C 6.300781 -10.453125 5.628906 -10.28125 5.046875 -9.9375 C 4.472656 -9.601562 4.023438 -9.125 3.703125 -8.5 C 3.378906 -7.875 3.21875 -7.140625 3.21875 -6.296875 C 3.21875 -5.460938 3.378906 -4.726562 3.703125 -4.09375 C 4.023438 -3.457031 4.472656 -2.96875 5.046875 -2.625 C 5.628906 -2.289062 6.300781 -2.125 7.0625 -2.125 Z M 7.0625 -2.125 "/></g></g></g><g fill="#6366f1" fill-opacity="1"><g transform="translate(114.407429, 31.711672)"><g><path d="M 3.71875 -12.53125 L 3.71875 -4.78125 C 3.71875 -3.925781 3.9375 -3.273438 4.375 -2.828125 C 4.820312 -2.378906 5.445312 -2.15625 6.25 -2.15625 C 7.0625 -2.15625 7.6875 -2.378906 8.125 -2.828125 C 8.570312 -3.273438 8.796875 -3.925781 8.796875 -4.78125 L 8.796875 -12.53125 L 11.328125 -12.53125 L 11.328125 -4.796875 C 11.328125 -3.734375 11.097656 -2.832031 10.640625 -2.09375 C 10.179688 -1.351562 9.5625 -0.796875 8.78125 -0.421875 C 8.007812 -0.0546875 7.15625 0.125 6.21875 0.125 C 5.28125 0.125 4.429688 -0.0546875 3.671875 -0.421875 C 2.910156 -0.796875 2.304688 -1.351562 1.859375 -2.09375 C 1.421875 -2.832031 1.203125 -3.734375 1.203125 -4.796875 L 1.203125 -12.53125 Z M 3.71875 -12.53125 "/></g></g></g><g fill="#1f1f49" fill-opacity="1"><g transform="translate(131.259424, 31.711672)"><g><path d="M 11.953125 0 L 9.4375 0 L 3.75 -8.59375 L 3.75 0 L 1.234375 0 L 1.234375 -12.546875 L 3.75 -12.546875 L 9.4375 -3.9375 L 9.4375 -12.546875 L 11.953125 -12.546875 Z M 11.953125 0 "/></g></g></g><g fill="#1f1f49" fill-opacity="1"><g transform="translate(148.777746, 31.711672)"><g><path d="M 3.75 -12.53125 L 3.75 0 L 1.234375 0 L 1.234375 -12.53125 Z M 3.75 -12.53125 "/></g></g></g><g fill="#1f1f49" fill-opacity="1"><g transform="translate(158.093564, 31.711672)"><g><path d="M 9.765625 -12.53125 L 9.765625 -10.5 L 6.421875 -10.5 L 6.421875 0 L 3.90625 0 L 3.90625 -10.5 L 0.578125 -10.5 L 0.578125 -12.53125 Z M 9.765625 -12.53125 "/></g></g></g><g fill="#1f1f49" fill-opacity="1"><g transform="translate(172.776009, 31.711672)"><g><path d="M 11.203125 -12.53125 L 6.96875 -4.359375 L 6.96875 0 L 4.453125 0 L 4.453125 -4.359375 L 0.203125 -12.53125 L 3.03125 -12.53125 L 5.734375 -6.796875 L 8.40625 -12.53125 Z M 11.203125 -12.53125 "/></g></g></g></svg>