<svg xmlns="http://www.w3.org/2000/svg" xmlns:xlink="http://www.w3.org/1999/xlink" width="200" zoomAndPan="magnify" viewBox="0 0 150 56.249996" height="75" preserveAspectRatio="xMidYMid meet" version="1.0"><defs><g/><clipPath id="90318db0f4"><path d="M 63.855469 6.292969 L 86.058594 6.292969 L 86.058594 28.496094 L 63.855469 28.496094 Z M 63.855469 6.292969 " clip-rule="nonzero"/></clipPath><clipPath id="7ed5c2544e"><path d="M 65 23 L 67 23 L 67 28.496094 L 65 28.496094 Z M 65 23 " clip-rule="nonzero"/></clipPath></defs><g fill="#0b1932" fill-opacity="1"><g transform="translate(3.606822, 42.134309)"><g><path d="M 0.390625 -4.125 C 0.390625 -4.9375 0.5625 -5.660156 0.90625 -6.296875 C 1.257812 -6.929688 1.75 -7.425781 2.375 -7.78125 C 3.007812 -8.132812 3.722656 -8.3125 4.515625 -8.3125 C 5.492188 -8.3125 6.328125 -8.050781 7.015625 -7.53125 C 7.710938 -7.019531 8.179688 -6.320312 8.421875 -5.4375 L 6.21875 -5.4375 C 6.050781 -5.769531 5.816406 -6.023438 5.515625 -6.203125 C 5.210938 -6.390625 4.875 -6.484375 4.5 -6.484375 C 3.875 -6.484375 3.367188 -6.269531 2.984375 -5.84375 C 2.609375 -5.414062 2.421875 -4.84375 2.421875 -4.125 C 2.421875 -3.40625 2.609375 -2.828125 2.984375 -2.390625 C 3.367188 -1.960938 3.875 -1.75 4.5 -1.75 C 4.875 -1.75 5.210938 -1.835938 5.515625 -2.015625 C 5.816406 -2.203125 6.050781 -2.46875 6.21875 -2.8125 L 8.421875 -2.8125 C 8.179688 -1.914062 7.710938 -1.210938 7.015625 -0.703125 C 6.328125 -0.191406 5.492188 0.0625 4.515625 0.0625 C 3.722656 0.0625 3.007812 -0.113281 2.375 -0.46875 C 1.75 -0.820312 1.257812 -1.316406 0.90625 -1.953125 C 0.5625 -2.585938 0.390625 -3.3125 0.390625 -4.125 Z M 0.390625 -4.125 "/></g></g></g><g fill="#0b1932" fill-opacity="1"><g transform="translate(17.608046, 42.134309)"><g><path d="M 4.609375 0.078125 C 3.835938 0.078125 3.128906 -0.0976562 2.484375 -0.453125 C 1.835938 -0.816406 1.328125 -1.316406 0.953125 -1.953125 C 0.578125 -2.597656 0.390625 -3.320312 0.390625 -4.125 C 0.390625 -4.9375 0.578125 -5.660156 0.953125 -6.296875 C 1.328125 -6.929688 1.835938 -7.425781 2.484375 -7.78125 C 3.128906 -8.144531 3.835938 -8.328125 4.609375 -8.328125 C 5.378906 -8.328125 6.085938 -8.144531 6.734375 -7.78125 C 7.378906 -7.425781 7.882812 -6.929688 8.25 -6.296875 C 8.625 -5.660156 8.8125 -4.9375 8.8125 -4.125 C 8.8125 -3.320312 8.625 -2.597656 8.25 -1.953125 C 7.875 -1.316406 7.363281 -0.816406 6.71875 -0.453125 C 6.082031 -0.0976562 5.378906 0.078125 4.609375 0.078125 Z M 4.609375 -1.75 C 5.265625 -1.75 5.789062 -1.960938 6.1875 -2.390625 C 6.582031 -2.828125 6.78125 -3.40625 6.78125 -4.125 C 6.78125 -4.851562 6.582031 -5.429688 6.1875 -5.859375 C 5.789062 -6.296875 5.265625 -6.515625 4.609375 -6.515625 C 3.941406 -6.515625 3.410156 -6.300781 3.015625 -5.875 C 2.628906 -5.445312 2.4375 -4.863281 2.4375 -4.125 C 2.4375 -3.40625 2.628906 -2.828125 3.015625 -2.390625 C 3.410156 -1.960938 3.941406 -1.75 4.609375 -1.75 Z M 4.609375 -1.75 "/></g></g></g><g fill="#0b1932" fill-opacity="1"><g transform="translate(31.889878, 42.134309)"><g><path d="M 10.03125 -8.21875 L 10.03125 0 L 8.03125 0 L 8.03125 -4.921875 L 6.1875 0 L 4.578125 0 L 2.734375 -4.9375 L 2.734375 0 L 0.71875 0 L 0.71875 -8.21875 L 3.09375 -8.21875 L 5.390625 -2.53125 L 7.671875 -8.21875 Z M 10.03125 -8.21875 "/></g></g></g><g fill="#0b1932" fill-opacity="1"><g transform="translate(47.715048, 42.134309)"><g><path d="M 10.03125 -8.21875 L 10.03125 0 L 8.03125 0 L 8.03125 -4.921875 L 6.1875 0 L 4.578125 0 L 2.734375 -4.9375 L 2.734375 0 L 0.71875 0 L 0.71875 -8.21875 L 3.09375 -8.21875 L 5.390625 -2.53125 L 7.671875 -8.21875 Z M 10.03125 -8.21875 "/></g></g></g><g fill="#5271ff" fill-opacity="1"><g transform="translate(63.546709, 42.134309)"><g><path d="M 7.765625 -8.21875 L 4.921875 -2.71875 L 4.921875 0 L 2.921875 0 L 2.921875 -2.71875 L 0.078125 -8.21875 L 2.359375 -8.21875 L 3.9375 -4.78125 L 5.53125 -8.21875 Z M 7.765625 -8.21875 "/></g></g></g><g fill="#5271ff" fill-opacity="1"><g transform="translate(76.483957, 42.134309)"><g><path d="M 4.609375 0.078125 C 3.835938 0.078125 3.128906 -0.0976562 2.484375 -0.453125 C 1.835938 -0.816406 1.328125 -1.316406 0.953125 -1.953125 C 0.578125 -2.597656 0.390625 -3.320312 0.390625 -4.125 C 0.390625 -4.9375 0.578125 -5.660156 0.953125 -6.296875 C 1.328125 -6.929688 1.835938 -7.425781 2.484375 -7.78125 C 3.128906 -8.144531 3.835938 -8.328125 4.609375 -8.328125 C 5.378906 -8.328125 6.085938 -8.144531 6.734375 -7.78125 C 7.378906 -7.425781 7.882812 -6.929688 8.25 -6.296875 C 8.625 -5.660156 8.8125 -4.9375 8.8125 -4.125 C 8.8125 -3.320312 8.625 -2.597656 8.25 -1.953125 C 7.875 -1.316406 7.363281 -0.816406 6.71875 -0.453125 C 6.082031 -0.0976562 5.378906 0.078125 4.609375 0.078125 Z M 4.609375 -1.75 C 5.265625 -1.75 5.789062 -1.960938 6.1875 -2.390625 C 6.582031 -2.828125 6.78125 -3.40625 6.78125 -4.125 C 6.78125 -4.851562 6.582031 -5.429688 6.1875 -5.859375 C 5.789062 -6.296875 5.265625 -6.515625 4.609375 -6.515625 C 3.941406 -6.515625 3.410156 -6.300781 3.015625 -5.875 C 2.628906 -5.445312 2.4375 -4.863281 2.4375 -4.125 C 2.4375 -3.40625 2.628906 -2.828125 3.015625 -2.390625 C 3.410156 -1.960938 3.941406 -1.75 4.609375 -1.75 Z M 4.609375 -1.75 "/></g></g></g><g fill="#5271ff" fill-opacity="1"><g transform="translate(90.765788, 42.134309)"><g><path d="M 2.6875 -8.21875 L 2.6875 -3.296875 C 2.6875 -2.804688 2.804688 -2.425781 3.046875 -2.15625 C 3.296875 -1.894531 3.65625 -1.765625 4.125 -1.765625 C 4.59375 -1.765625 4.953125 -1.894531 5.203125 -2.15625 C 5.453125 -2.425781 5.578125 -2.804688 5.578125 -3.296875 L 5.578125 -8.21875 L 7.578125 -8.21875 L 7.578125 -3.3125 C 7.578125 -2.582031 7.421875 -1.960938 7.109375 -1.453125 C 6.796875 -0.941406 6.375 -0.554688 5.84375 -0.296875 C 5.320312 -0.046875 4.734375 0.078125 4.078125 0.078125 C 3.429688 0.078125 2.851562 -0.046875 2.34375 -0.296875 C 1.832031 -0.546875 1.425781 -0.925781 1.125 -1.4375 C 0.832031 -1.957031 0.6875 -2.582031 0.6875 -3.3125 L 0.6875 -8.21875 Z M 2.6875 -8.21875 "/></g></g></g><g fill="#0b1932" fill-opacity="1"><g transform="translate(104.110966, 42.134309)"><g><path d="M 8.078125 0 L 6.078125 0 L 2.734375 -5.0625 L 2.734375 0 L 0.71875 0 L 0.71875 -8.21875 L 2.734375 -8.21875 L 6.078125 -3.125 L 6.078125 -8.21875 L 8.078125 -8.21875 Z M 8.078125 0 "/></g></g></g><g fill="#0b1932" fill-opacity="1"><g transform="translate(117.995264, 42.134309)"><g><path d="M 2.734375 -8.21875 L 2.734375 0 L 0.71875 0 L 0.71875 -8.21875 Z M 2.734375 -8.21875 "/></g></g></g><g fill="#0b1932" fill-opacity="1"><g transform="translate(126.536338, 42.134309)"><g><path d="M 6.640625 -8.21875 L 6.640625 -6.609375 L 4.453125 -6.609375 L 4.453125 0 L 2.453125 0 L 2.453125 -6.609375 L 0.28125 -6.609375 L 0.28125 -8.21875 Z M 6.640625 -8.21875 "/></g></g></g><g fill="#0b1932" fill-opacity="1"><g transform="translate(138.538229, 42.134309)"><g><path d="M 7.765625 -8.21875 L 4.921875 -2.71875 L 4.921875 0 L 2.921875 0 L 2.921875 -2.71875 L 0.078125 -8.21875 L 2.359375 -8.21875 L 3.9375 -4.78125 L 5.53125 -8.21875 Z M 7.765625 -8.21875 "/></g></g></g><g clip-path="url(#90318db0f4)"><path fill="#5271ff" d="M 77.71875 15.003906 C 77.691406 15.019531 77.671875 15.035156 77.652344 15.054688 C 77.027344 15.558594 76.273438 16.074219 75.363281 16.59375 C 74.886719 16.320312 74.449219 16.046875 74.054688 15.777344 C 74.039062 15.765625 74.027344 15.757812 74.011719 15.75 C 73.054688 15.09375 72.328125 14.457031 71.773438 13.855469 C 71.753906 13.820312 71.730469 13.792969 71.699219 13.769531 C 70.34375 12.25 70.105469 10.960938 70.136719 10.164062 C 70.179688 9.074219 70.773438 8.101562 71.648438 7.691406 C 72.035156 7.507812 72.410156 7.4375 72.761719 7.4375 C 74.101562 7.4375 75.089844 8.496094 75.144531 8.550781 C 75.199219 8.613281 75.277344 8.648438 75.363281 8.648438 C 75.445312 8.648438 75.523438 8.613281 75.582031 8.554688 C 75.648438 8.480469 77.207031 6.816406 79.074219 7.691406 C 79.953125 8.101562 80.546875 9.074219 80.589844 10.164062 C 80.621094 10.980469 80.371094 12.3125 78.925781 13.878906 C 78.894531 13.902344 78.871094 13.929688 78.851562 13.960938 C 78.53125 14.296875 78.15625 14.648438 77.71875 15.003906 Z M 76.582031 19.753906 C 77.34375 19.753906 77.960938 20.371094 77.960938 21.132812 C 77.960938 21.894531 77.34375 22.515625 76.582031 22.515625 C 76.417969 22.515625 76.265625 22.484375 76.121094 22.433594 C 76.03125 22.390625 75.941406 22.347656 75.84375 22.300781 C 75.457031 22.054688 75.199219 21.625 75.199219 21.132812 C 75.199219 20.371094 75.820312 19.753906 76.582031 19.753906 Z M 64.753906 19.53125 C 64.753906 18.59375 65.515625 17.832031 66.453125 17.832031 C 67.390625 17.832031 68.15625 18.59375 68.15625 19.53125 C 68.15625 20.472656 67.390625 21.234375 66.453125 21.234375 C 65.515625 21.234375 64.753906 20.472656 64.753906 19.53125 Z M 83.539062 18.132812 C 84.40625 18.132812 85.109375 18.835938 85.109375 19.707031 C 85.109375 20.574219 84.40625 21.277344 83.539062 21.277344 C 82.671875 21.277344 81.964844 20.574219 81.964844 19.707031 C 81.964844 18.835938 82.671875 18.132812 83.539062 18.132812 Z M 84.460938 21.667969 C 85.195312 21.320312 85.707031 20.570312 85.707031 19.707031 C 85.707031 18.507812 84.734375 17.535156 83.539062 17.535156 C 82.34375 17.535156 81.375 18.507812 81.371094 19.699219 C 80.332031 18.046875 79.667969 15.53125 79.421875 14.214844 C 80.957031 12.515625 81.21875 11.042969 81.183594 10.140625 C 81.132812 8.832031 80.40625 7.65625 79.328125 7.152344 C 77.492188 6.289062 75.925781 7.433594 75.363281 7.9375 C 74.800781 7.433594 73.242188 6.289062 71.398438 7.152344 C 70.320312 7.65625 69.59375 8.832031 69.542969 10.140625 C 69.507812 11.019531 69.757812 12.4375 71.183594 14.078125 C 70.390625 16.503906 69.671875 18.5 68.734375 19.785156 C 68.746094 19.703125 68.75 19.617188 68.75 19.53125 C 68.75 18.265625 67.71875 17.238281 66.453125 17.238281 C 65.1875 17.238281 64.160156 18.265625 64.160156 19.53125 C 64.160156 20.460938 64.710938 21.261719 65.507812 21.621094 C 65.429688 21.652344 65.351562 21.683594 65.28125 21.71875 C 64.425781 22.113281 63.871094 22.988281 63.871094 23.949219 L 63.871094 28.191406 C 63.871094 28.359375 64.003906 28.492188 64.167969 28.492188 C 64.332031 28.492188 64.464844 28.359375 64.464844 28.191406 L 64.464844 23.949219 C 64.464844 23.21875 64.882812 22.558594 65.53125 22.257812 C 65.878906 22.097656 66.300781 21.964844 66.78125 21.863281 C 69.179688 21.359375 70.300781 18.660156 71.648438 14.574219 C 71.851562 14.78125 72.078125 14.992188 72.324219 15.203125 C 71.425781 18.824219 70.386719 21.410156 69.464844 22.300781 C 69.410156 22.359375 69.375 22.4375 69.375 22.515625 L 69.375 28.191406 C 69.375 28.359375 69.507812 28.492188 69.671875 28.492188 C 69.835938 28.492188 69.972656 28.359375 69.972656 28.191406 L 69.972656 22.636719 C 71.234375 21.300781 72.273438 17.828125 72.832031 15.621094 C 73.046875 15.789062 73.273438 15.957031 73.515625 16.128906 C 73.054688 17.585938 72.257812 20.753906 73.136719 23.121094 L 73.136719 28.191406 C 73.136719 28.359375 73.269531 28.492188 73.433594 28.492188 C 73.597656 28.492188 73.730469 28.359375 73.730469 28.191406 L 73.730469 23.066406 C 73.730469 23.03125 73.722656 22.992188 73.710938 22.960938 C 72.890625 20.816406 73.628906 17.796875 74.03125 16.476562 C 74.324219 16.667969 74.632812 16.859375 74.964844 17.050781 C 74.523438 18.664062 73.867188 21.960938 75.550781 22.816406 C 75.65625 22.882812 75.765625 22.9375 75.882812 22.980469 C 77.621094 23.839844 77.960938 24.160156 77.960938 24.847656 L 77.960938 28.191406 C 77.960938 28.359375 78.09375 28.492188 78.257812 28.492188 C 78.425781 28.492188 78.558594 28.359375 78.558594 28.191406 L 78.558594 24.847656 C 78.558594 24.035156 78.167969 23.5625 77.210938 23.007812 C 77.992188 22.742188 78.558594 22.003906 78.558594 21.132812 C 78.558594 20.042969 77.671875 19.15625 76.582031 19.15625 C 75.972656 19.15625 75.429688 19.433594 75.066406 19.867188 C 75.117188 19.027344 75.300781 18.078125 75.546875 17.175781 C 76.367188 16.710938 77.070312 16.246094 77.671875 15.792969 C 77.9375 17.058594 78.75 20.507812 80.039062 22.441406 L 80.039062 28.191406 C 80.039062 28.359375 80.171875 28.492188 80.335938 28.492188 C 80.5 28.492188 80.632812 28.359375 80.632812 28.191406 L 80.632812 22.347656 C 80.632812 22.289062 80.613281 22.230469 80.582031 22.179688 C 79.222656 20.207031 78.371094 16.25 78.195312 15.378906 C 78.457031 15.160156 78.699219 14.945312 78.921875 14.730469 C 79.289062 16.453125 80.589844 21.503906 83.195312 21.871094 C 83.292969 21.882812 85.53125 22.246094 85.53125 24.214844 L 85.53125 28.191406 C 85.53125 28.359375 85.664062 28.492188 85.828125 28.492188 C 85.992188 28.492188 86.125 28.359375 86.125 28.191406 L 86.125 24.214844 C 86.125 22.890625 85.300781 22.09375 84.460938 21.667969 " fill-opacity="1" fill-rule="nonzero"/></g><g clip-path="url(#7ed5c2544e)"><path fill="#5271ff" d="M 65.84375 23.988281 C 65.675781 23.988281 65.542969 24.121094 65.542969 24.285156 L 65.542969 28.191406 C 65.542969 28.359375 65.675781 28.492188 65.84375 28.492188 C 66.007812 28.492188 66.140625 28.359375 66.140625 28.191406 L 66.140625 24.285156 C 66.140625 24.121094 66.007812 23.988281 65.84375 23.988281 " fill-opacity="1" fill-rule="nonzero"/></g></svg>