<svg xmlns="http://www.w3.org/2000/svg" xmlns:xlink="http://www.w3.org/1999/xlink" width="500" zoomAndPan="magnify" viewBox="0 0 375 187.499995" height="250" preserveAspectRatio="xMidYMid meet" version="1.0"><defs><g/><clipPath id="c149313a25"><path d="M 6.519531 2.554688 L 188.285156 2.554688 L 188.285156 184.316406 L 6.519531 184.316406 Z M 6.519531 2.554688 " clip-rule="nonzero"/></clipPath></defs><g clip-path="url(#c149313a25)"><path fill="#262032" d="M 97.46875 2.554688 C 122.570312 2.554688 145.34375 12.773438 161.75 29.183594 C 178.230469 45.660156 188.378906 68.363281 188.378906 93.464844 C 188.378906 118.636719 178.230469 141.335938 161.75 157.816406 C 145.34375 174.222656 122.570312 184.445312 97.46875 184.445312 C 72.367188 184.445312 49.59375 174.222656 33.1875 157.816406 C 16.707031 141.335938 6.558594 118.636719 6.558594 93.464844 C 6.558594 68.363281 16.707031 45.660156 33.1875 29.183594 C 49.59375 12.773438 72.367188 2.554688 97.46875 2.554688 Z M 35.660156 73.746094 C 37.660156 75.746094 40.425781 76.984375 43.519531 76.984375 L 43.589844 76.984375 C 46.609375 76.984375 49.375 75.746094 51.449219 73.746094 C 53.449219 71.746094 54.6875 68.90625 54.6875 65.886719 C 54.6875 62.796875 53.449219 60.03125 51.449219 58.03125 C 49.375 56.03125 46.609375 54.71875 43.519531 54.71875 C 40.5 54.71875 37.660156 56.03125 35.660156 58.03125 C 33.660156 60.03125 32.421875 62.796875 32.421875 65.886719 C 32.421875 68.90625 33.660156 71.746094 35.660156 73.746094 Z M 30.714844 53.046875 C 34.023438 49.734375 38.570312 47.734375 43.554688 47.734375 C 48.574219 47.734375 53.160156 49.734375 56.398438 53.046875 C 59.707031 56.355469 61.707031 60.832031 61.707031 65.886719 C 61.707031 70.945312 59.707031 75.417969 56.398438 78.730469 C 56.25 78.875 56.105469 79.019531 55.996094 79.128906 C 61.453125 80.984375 66.292969 84.113281 70.257812 88.042969 L 70.546875 88.371094 L 70.839844 88.042969 C 74.839844 84.113281 79.679688 81.023438 85.101562 79.128906 C 84.953125 78.984375 84.808594 78.839844 84.699219 78.730469 C 81.390625 75.417969 79.386719 70.945312 79.386719 65.886719 C 79.386719 60.832031 81.390625 56.355469 84.699219 53.046875 C 87.9375 49.734375 92.484375 47.734375 97.542969 47.734375 C 102.523438 47.734375 107.074219 49.734375 110.382812 53.046875 C 113.621094 56.355469 115.695312 60.832031 115.695312 65.886719 C 115.695312 70.945312 113.621094 75.417969 110.382812 78.730469 C 110.238281 78.875 110.09375 79.019531 109.984375 79.128906 C 115.367188 80.984375 120.277344 84.113281 124.207031 88.042969 L 124.535156 88.371094 L 124.824219 88.042969 C 128.753906 84.113281 133.664062 81.023438 139.050781 79.128906 C 138.902344 78.984375 138.757812 78.839844 138.648438 78.730469 C 135.410156 75.417969 133.335938 70.871094 133.335938 65.886719 C 133.335938 60.867188 135.410156 56.355469 138.648438 53.046875 C 141.960938 49.734375 146.507812 47.734375 151.492188 47.734375 C 156.511719 47.734375 161.09375 49.734375 164.332031 53.046875 C 167.644531 56.355469 169.644531 60.832031 169.644531 65.886719 C 169.644531 70.945312 167.644531 75.417969 164.332031 78.730469 C 164.1875 78.875 164.042969 79.019531 163.933594 79.128906 C 167.570312 80.367188 170.953125 82.222656 174.007812 84.441406 C 176.917969 86.585938 179.394531 89.0625 181.539062 91.898438 C 181.140625 69.34375 171.828125 49.007812 156.984375 34.164062 C 141.8125 18.996094 120.824219 9.609375 97.648438 9.609375 C 74.476562 9.609375 53.339844 18.960938 38.097656 34.128906 C 23.253906 48.972656 13.941406 69.308594 13.542969 91.863281 C 15.6875 89.023438 18.234375 86.550781 21.074219 84.40625 C 24.09375 82.1875 27.546875 80.332031 31.148438 79.09375 C 31.003906 78.949219 30.859375 78.800781 30.75 78.695312 C 27.511719 75.382812 25.4375 70.835938 25.4375 65.851562 C 25.402344 60.832031 27.476562 56.355469 30.714844 53.046875 Z M 43.589844 84.003906 L 43.519531 84.003906 C 36.605469 84.003906 30.277344 86.296875 25.257812 90.078125 C 20.164062 93.789062 16.34375 99.101562 14.34375 105.175781 C 16.890625 123.65625 25.511719 140.28125 38.0625 152.832031 C 53.304688 168.003906 74.257812 177.390625 97.46875 177.390625 C 120.679688 177.390625 141.632812 168.003906 156.800781 152.832031 C 169.425781 140.210938 177.976562 123.65625 180.59375 105.175781 C 178.59375 99.101562 174.738281 93.789062 169.679688 90.078125 C 164.585938 86.296875 158.292969 84.003906 151.417969 84.003906 L 151.34375 84.003906 C 142.867188 84.003906 135.191406 87.460938 129.699219 92.953125 C 129.410156 93.246094 129.15625 93.5 128.863281 93.789062 C 132.863281 99.792969 135.191406 106.960938 135.191406 114.707031 C 135.191406 118.929688 134.429688 123.039062 133.121094 127.003906 C 131.738281 130.859375 129.738281 134.609375 127.191406 137.917969 L 127.117188 137.992188 L 127.117188 138.0625 L 127.042969 138.0625 L 126.972656 138.136719 C 126.644531 138.535156 126.136719 138.898438 125.660156 139.117188 L 125.445312 139.117188 L 125.371094 139.191406 L 125.226562 139.191406 L 125.152344 139.265625 L 125.007812 139.265625 C 124.171875 139.410156 123.332031 139.265625 122.605469 138.863281 L 122.535156 138.792969 L 122.460938 138.792969 L 122.460938 138.71875 L 122.386719 138.71875 L 122.316406 138.644531 L 122.242188 138.644531 L 122.242188 138.574219 L 122.167969 138.5 L 122.097656 138.5 L 122.097656 138.425781 C 121.878906 138.28125 121.769531 138.101562 121.625 137.882812 C 119.078125 134.570312 117.078125 130.898438 115.765625 127.039062 C 114.382812 123.113281 113.691406 118.964844 113.691406 114.746094 C 113.691406 107.03125 115.984375 99.828125 119.988281 93.828125 C 119.695312 93.535156 119.515625 93.28125 119.222656 92.992188 C 113.621094 87.460938 105.980469 84.042969 97.578125 84.042969 L 97.433594 84.042969 C 88.957031 84.042969 81.28125 87.496094 75.785156 92.992188 C 75.496094 93.28125 75.242188 93.535156 75.023438 93.828125 C 78.953125 99.828125 81.316406 106.996094 81.316406 114.746094 C 81.316406 118.964844 80.625 123.074219 79.242188 127.039062 C 77.933594 130.898438 75.933594 134.570312 73.386719 137.882812 C 73.167969 138.171875 72.984375 138.355469 72.695312 138.574219 C 71.929688 139.191406 71.019531 139.410156 70.148438 139.335938 L 70.074219 139.265625 L 69.785156 139.265625 C 69.636719 139.191406 69.492188 139.191406 69.382812 139.117188 L 69.3125 139.117188 L 69.238281 139.046875 L 69.128906 139.046875 L 69.054688 138.972656 L 68.984375 138.972656 L 68.910156 138.898438 C 68.621094 138.753906 68.367188 138.609375 68.148438 138.425781 L 68.074219 138.355469 C 67.929688 138.210938 67.785156 138.0625 67.675781 137.882812 C 65.128906 134.570312 63.125 130.898438 61.816406 127.039062 C 60.433594 123.113281 59.742188 118.964844 59.742188 114.746094 C 59.742188 107.03125 62.070312 99.828125 66.074219 93.828125 C 65.78125 93.535156 65.527344 93.28125 65.238281 92.992188 C 59.742188 87.460938 52.066406 84.003906 43.589844 84.003906 Z M 97.46875 54.683594 C 94.375 54.683594 91.613281 55.992188 89.609375 57.992188 C 87.609375 59.996094 86.300781 62.757812 86.300781 65.851562 C 86.300781 68.871094 87.609375 71.707031 89.609375 73.710938 C 91.613281 75.710938 94.375 76.949219 97.394531 76.949219 L 97.542969 76.949219 C 100.5625 76.949219 103.324219 75.710938 105.328125 73.710938 C 107.328125 71.707031 108.5625 68.871094 108.5625 65.851562 C 108.5625 62.757812 107.328125 59.996094 105.328125 57.992188 C 103.324219 55.992188 100.488281 54.683594 97.46875 54.683594 Z M 124.425781 129.40625 C 125.261719 127.949219 125.953125 126.386719 126.5 124.710938 C 127.589844 121.546875 128.171875 118.164062 128.171875 114.707031 C 128.171875 109.398438 126.789062 104.375 124.460938 100.011719 C 122.058594 104.339844 120.679688 109.398438 120.679688 114.707031 C 120.679688 118.164062 121.296875 121.546875 122.386719 124.710938 C 122.933594 126.351562 123.625 127.949219 124.425781 129.40625 Z M 70.511719 129.40625 C 71.347656 127.949219 72.039062 126.386719 72.585938 124.710938 C 73.675781 121.546875 74.257812 118.164062 74.257812 114.707031 C 74.257812 109.398438 72.949219 104.375 70.546875 100.011719 C 68.148438 104.339844 66.835938 109.398438 66.835938 114.707031 C 66.835938 118.164062 67.382812 121.546875 68.511719 124.710938 C 68.984375 126.351562 69.675781 127.949219 70.511719 129.40625 Z M 151.34375 54.683594 C 148.324219 54.683594 145.488281 55.992188 143.488281 57.992188 C 141.488281 59.996094 140.25 62.757812 140.25 65.851562 C 140.25 68.871094 141.488281 71.707031 143.488281 73.710938 C 145.488281 75.710938 148.324219 76.949219 151.34375 76.949219 L 151.417969 76.949219 C 154.4375 76.949219 157.203125 75.710938 159.277344 73.710938 C 161.277344 71.707031 162.511719 68.871094 162.511719 65.851562 C 162.511719 62.757812 161.277344 59.996094 159.277344 57.992188 C 157.203125 55.992188 154.4375 54.683594 151.34375 54.683594 Z M 151.34375 76.984375 Z M 151.34375 76.984375 " fill-opacity="1" fill-rule="nonzero"/></g><g fill="#262032" fill-opacity="1"><g transform="translate(202.722936, 79.133267)"><g><path d="M 1.578125 -18.75 C 1.578125 -22.445312 2.328125 -25.738281 3.828125 -28.625 C 5.328125 -31.507812 7.46875 -33.753906 10.25 -35.359375 C 13.03125 -36.960938 16.300781 -37.765625 20.0625 -37.765625 C 23.300781 -37.765625 26.195312 -37.15625 28.75 -35.9375 C 31.300781 -34.71875 33.378906 -33 34.984375 -30.78125 C 36.585938 -28.570312 37.65625 -25.988281 38.1875 -23.03125 L 25.828125 -23.03125 C 25.265625 -24.257812 24.460938 -25.21875 23.421875 -25.90625 C 22.378906 -26.59375 21.191406 -26.9375 19.859375 -26.9375 C 17.890625 -26.9375 16.332031 -26.195312 15.1875 -24.71875 C 14.039062 -23.238281 13.46875 -21.25 13.46875 -18.75 C 13.46875 -16.25 14.039062 -14.257812 15.1875 -12.78125 C 16.332031 -11.300781 17.890625 -10.5625 19.859375 -10.5625 C 21.191406 -10.5625 22.378906 -10.90625 23.421875 -11.59375 C 24.460938 -12.28125 25.265625 -13.238281 25.828125 -14.46875 L 38.1875 -14.46875 C 37.65625 -11.507812 36.585938 -8.921875 34.984375 -6.703125 C 33.378906 -4.484375 31.300781 -2.765625 28.75 -1.546875 C 26.195312 -0.335938 23.300781 0.265625 20.0625 0.265625 C 16.300781 0.265625 13.03125 -0.535156 10.25 -2.140625 C 7.46875 -3.742188 5.328125 -5.988281 3.828125 -8.875 C 2.328125 -11.757812 1.578125 -15.050781 1.578125 -18.75 Z M 1.578125 -18.75 "/></g></g></g><g fill="#262032" fill-opacity="1"><g transform="translate(238.469342, 79.133267)"><g><path d="M 20.859375 0.375 C 17.335938 0.375 14.109375 -0.453125 11.171875 -2.109375 C 8.234375 -3.765625 5.898438 -6.050781 4.171875 -8.96875 C 2.441406 -11.894531 1.578125 -15.191406 1.578125 -18.859375 C 1.578125 -22.515625 2.441406 -25.800781 4.171875 -28.71875 C 5.898438 -31.644531 8.234375 -33.925781 11.171875 -35.5625 C 14.109375 -37.207031 17.335938 -38.03125 20.859375 -38.03125 C 24.378906 -38.03125 27.597656 -37.207031 30.515625 -35.5625 C 33.441406 -33.925781 35.757812 -31.644531 37.46875 -28.71875 C 39.175781 -25.800781 40.03125 -22.515625 40.03125 -18.859375 C 40.03125 -15.191406 39.175781 -11.894531 37.46875 -8.96875 C 35.757812 -6.050781 33.4375 -3.765625 30.5 -2.109375 C 27.5625 -0.453125 24.347656 0.375 20.859375 0.375 Z M 20.859375 -10.5625 C 23.179688 -10.5625 24.976562 -11.304688 26.25 -12.796875 C 27.519531 -14.296875 28.15625 -16.316406 28.15625 -18.859375 C 28.15625 -21.421875 27.519531 -23.453125 26.25 -24.953125 C 24.976562 -26.453125 23.179688 -27.203125 20.859375 -27.203125 C 18.503906 -27.203125 16.691406 -26.453125 15.421875 -24.953125 C 14.148438 -23.453125 13.515625 -21.421875 13.515625 -18.859375 C 13.515625 -16.316406 14.148438 -14.296875 15.421875 -12.796875 C 16.691406 -11.304688 18.503906 -10.5625 20.859375 -10.5625 Z M 20.859375 -10.5625 "/></g></g></g><g fill="#262032" fill-opacity="1"><g transform="translate(276.063848, 79.133267)"><g><path d="M 47.578125 -37.390625 L 47.578125 0 L 35.90625 0 L 35.90625 -18.640625 L 30.15625 0 L 20.125 0 L 14.359375 -18.640625 L 14.359375 0 L 2.640625 0 L 2.640625 -37.390625 L 17 -37.390625 L 25.25 -14.953125 L 33.265625 -37.390625 Z M 47.578125 -37.390625 "/></g></g></g><g fill="#262032" fill-opacity="1"><g transform="translate(322.265216, 79.133267)"><g><path d="M 47.578125 -37.390625 L 47.578125 0 L 35.90625 0 L 35.90625 -18.640625 L 30.15625 0 L 20.125 0 L 14.359375 -18.640625 L 14.359375 0 L 2.640625 0 L 2.640625 -37.390625 L 17 -37.390625 L 25.25 -14.953125 L 33.265625 -37.390625 Z M 47.578125 -37.390625 "/></g></g></g><g fill="#8c52ff" fill-opacity="1"><g transform="translate(202.722936, 111.351044)"><g><path d="M 38.546875 -37.390625 L 25.140625 -11.359375 L 25.140625 0 L 13.421875 0 L 13.421875 -11.359375 L 0 -37.390625 L 13.421875 -37.390625 L 19.375 -24.140625 L 25.34375 -37.390625 Z M 38.546875 -37.390625 "/></g></g></g><g fill="#8c52ff" fill-opacity="1"><g transform="translate(237.25488, 111.351044)"><g><path d="M 20.859375 0.375 C 17.335938 0.375 14.109375 -0.453125 11.171875 -2.109375 C 8.234375 -3.765625 5.898438 -6.050781 4.171875 -8.96875 C 2.441406 -11.894531 1.578125 -15.191406 1.578125 -18.859375 C 1.578125 -22.515625 2.441406 -25.800781 4.171875 -28.71875 C 5.898438 -31.644531 8.234375 -33.925781 11.171875 -35.5625 C 14.109375 -37.207031 17.335938 -38.03125 20.859375 -38.03125 C 24.378906 -38.03125 27.597656 -37.207031 30.515625 -35.5625 C 33.441406 -33.925781 35.757812 -31.644531 37.46875 -28.71875 C 39.175781 -25.800781 40.03125 -22.515625 40.03125 -18.859375 C 40.03125 -15.191406 39.175781 -11.894531 37.46875 -8.96875 C 35.757812 -6.050781 33.4375 -3.765625 30.5 -2.109375 C 27.5625 -0.453125 24.347656 0.375 20.859375 0.375 Z M 20.859375 -10.5625 C 23.179688 -10.5625 24.976562 -11.304688 26.25 -12.796875 C 27.519531 -14.296875 28.15625 -16.316406 28.15625 -18.859375 C 28.15625 -21.421875 27.519531 -23.453125 26.25 -24.953125 C 24.976562 -26.453125 23.179688 -27.203125 20.859375 -27.203125 C 18.503906 -27.203125 16.691406 -26.453125 15.421875 -24.953125 C 14.148438 -23.453125 13.515625 -21.421875 13.515625 -18.859375 C 13.515625 -16.316406 14.148438 -14.296875 15.421875 -12.796875 C 16.691406 -11.304688 18.503906 -10.5625 20.859375 -10.5625 Z M 20.859375 -10.5625 "/></g></g></g><g fill="#8c52ff" fill-opacity="1"><g transform="translate(274.849386, 111.351044)"><g><path d="M 14.09375 -37.390625 L 14.09375 -16.3125 C 14.09375 -14.59375 14.472656 -13.226562 15.234375 -12.21875 C 15.992188 -11.21875 17.21875 -10.71875 18.90625 -10.71875 C 20.59375 -10.71875 21.84375 -11.21875 22.65625 -12.21875 C 23.46875 -13.226562 23.875 -14.59375 23.875 -16.3125 L 23.875 -37.390625 L 35.546875 -37.390625 L 35.546875 -16.3125 C 35.546875 -12.757812 34.804688 -9.722656 33.328125 -7.203125 C 31.847656 -4.691406 29.820312 -2.800781 27.25 -1.53125 C 24.675781 -0.257812 21.804688 0.375 18.640625 0.375 C 15.472656 0.375 12.664062 -0.257812 10.21875 -1.53125 C 7.769531 -2.800781 5.859375 -4.6875 4.484375 -7.1875 C 3.109375 -9.6875 2.421875 -12.726562 2.421875 -16.3125 L 2.421875 -37.390625 Z M 14.09375 -37.390625 "/></g></g></g><g fill="#262032" fill-opacity="1"><g transform="translate(202.722936, 143.568821)"><g><path d="M 38.5 0 L 26.78125 0 L 14.359375 -18.796875 L 14.359375 0 L 2.640625 0 L 2.640625 -37.390625 L 14.359375 -37.390625 L 26.78125 -18.265625 L 26.78125 -37.390625 L 38.5 -37.390625 Z M 38.5 0 "/></g></g></g><g fill="#262032" fill-opacity="1"><g transform="translate(239.84222, 143.568821)"><g><path d="M 14.359375 -37.390625 L 14.359375 0 L 2.640625 0 L 2.640625 -37.390625 Z M 14.359375 -37.390625 "/></g></g></g><g fill="#262032" fill-opacity="1"><g transform="translate(252.830604, 143.568821)"><g><path d="M 32 -37.390625 L 32 -28.09375 L 22.078125 -28.09375 L 22.078125 0 L 10.34375 0 L 10.34375 -28.09375 L 0.53125 -28.09375 L 0.53125 -37.390625 Z M 32 -37.390625 "/></g></g></g><g fill="#262032" fill-opacity="1"><g transform="translate(281.343027, 143.568821)"><g><path d="M 38.546875 -37.390625 L 25.140625 -11.359375 L 25.140625 0 L 13.421875 0 L 13.421875 -11.359375 L 0 -37.390625 L 13.421875 -37.390625 L 19.375 -24.140625 L 25.34375 -37.390625 Z M 38.546875 -37.390625 "/></g></g></g></svg>